<?xml version="1.0" encoding="utf-8"?>
<!-- Generator: Adobe Illustrator 26.0.2, SVG Export Plug-In . SVG Version: 6.00 Build 0)  -->
<svg version="1.1" id="logo" xmlns="http://www.w3.org/2000/svg" xmlns:xlink="http://www.w3.org/1999/xlink"
	x="0px" y="0px" viewBox="0 0 36 36" xml:space="preserve">
	<style type="text/css">
		.st0 {
			fill-rule: evenodd;
			clip-rule: evenodd;
		}
	</style>
	<path id="icon" class="st0"
		d="M22.23 9.57c-2.09 0-3.78-1.7-3.78-3.79 0-2.09 1.7-3.78 3.79-3.78 2.09 0 3.78 1.7 3.78 3.79C26.02 7.88 24.33 9.57 22.23 9.57zM5.36 32.18l10.68-20.5-2.67-1.39-2.19 4.2-2.8-1.46 3.64-6.99 13.06 6.79 2.69-5.16 2.8 1.46-4.14 7.95-5.48-2.84-2.79 5.35L24 22.61l-3.97 7.62-3.51-1.82 2.14-4.11-3.73-1.94L8.87 34 5.36 32.18z" />
</svg>